# Blender v2.79 (sub 0) OBJ File: 'balde_de_madeira.blend'
# www.blender.org
mtllib balde_de_madeira.mtl
o Cylinder
v -0.075477 -0.186560 -0.182217
v -0.088401 0.297437 -0.213418
v 0.075477 -0.186560 -0.182217
v 0.088401 0.297437 -0.213418
v 0.182217 -0.186560 -0.075477
v 0.213418 0.297437 -0.088401
v 0.182217 -0.186560 0.075477
v 0.213418 0.297437 0.088401
v 0.075477 -0.186560 0.182217
v 0.088401 0.297437 0.213418
v -0.075477 -0.186560 0.182217
v -0.088401 0.297437 0.213418
v -0.182217 -0.186560 0.075477
v -0.213418 0.297437 0.088401
v -0.182217 -0.186560 -0.075477
v -0.213418 0.297437 -0.088401
v -0.096707 0.205508 -0.233471
v 0.096707 0.205508 -0.233471
v 0.233471 0.205508 -0.096707
v 0.233471 0.205508 0.096707
v 0.096707 0.205508 0.233471
v -0.096707 0.205508 0.233471
v -0.233471 0.205508 0.096707
v -0.233471 0.205508 -0.096707
v 0.094940 0.172881 -0.229206
v 0.229206 0.172881 -0.094940
v 0.229206 0.172881 0.094940
v 0.094940 0.172881 0.229206
v -0.094940 0.172881 0.229206
v -0.229206 0.172881 0.094940
v -0.229206 0.172881 -0.094940
v -0.094940 0.172881 -0.229206
v 0.078824 -0.124751 -0.190297
v 0.190297 -0.124751 -0.078824
v 0.190297 -0.124751 0.078824
v 0.078824 -0.124751 0.190297
v -0.078824 -0.124751 0.190297
v -0.190297 -0.124751 0.078824
v -0.190297 -0.124751 -0.078824
v -0.078824 -0.124751 -0.190297
v -0.080686 -0.090365 -0.194792
v 0.080686 -0.090365 -0.194792
v 0.194792 -0.090365 -0.080686
v 0.194792 -0.090365 0.080686
v 0.080686 -0.090365 0.194792
v -0.080686 -0.090365 0.194792
v -0.194792 -0.090365 0.080686
v -0.194792 -0.090365 -0.080686
v 0.101685 0.297437 -0.245489
v -0.101685 0.297437 -0.245489
v 0.245489 0.297437 -0.101685
v 0.245489 0.297437 0.101685
v 0.101685 0.297437 0.245489
v -0.101685 0.297437 0.245489
v -0.245489 0.297437 0.101685
v -0.245489 0.297437 -0.101685
v 0.065363 -0.161010 -0.157801
v -0.065363 -0.161010 -0.157801
v 0.157801 -0.161010 -0.065363
v 0.157801 -0.161010 0.065363
v 0.065363 -0.161010 0.157801
v -0.065363 -0.161010 0.157801
v -0.157801 -0.161010 0.065363
v -0.157801 -0.161010 -0.065363
v -0.000000 -0.161010 0.000000
v -0.213418 0.384627 0.088401
v -0.000000 -0.186560 0.000000
v -0.213418 0.384627 -0.088401
v 0.213418 0.384627 -0.088401
v 0.213418 0.384627 0.088401
v -0.245489 0.384627 0.101685
v -0.245489 0.384627 -0.101685
v 0.245489 0.384627 -0.101685
v 0.245489 0.384627 0.101685
v -0.098780 0.178223 -0.238476
v -0.100618 0.212169 -0.242914
v -0.242914 0.212169 -0.100618
v -0.242914 0.212169 0.100618
v -0.100618 0.212169 0.242914
v 0.100618 0.212169 0.242914
v 0.242914 0.212169 0.100618
v 0.242914 0.212169 -0.100618
v 0.100618 0.212169 -0.242914
v 0.098780 0.178223 -0.238476
v 0.238476 0.178223 -0.098780
v 0.238476 0.178223 0.098780
v 0.098780 0.178223 0.238476
v -0.098780 0.178223 0.238476
v -0.238476 0.178223 0.098780
v -0.238476 0.178223 -0.098780
v 0.083949 -0.095671 -0.202671
v 0.082012 -0.131448 -0.197994
v 0.202671 -0.095671 -0.083949
v 0.197994 -0.131448 -0.082012
v 0.202671 -0.095671 0.083949
v 0.197994 -0.131448 0.082012
v 0.083949 -0.095671 0.202671
v 0.082012 -0.131448 0.197994
v -0.083949 -0.095671 0.202671
v -0.082012 -0.131448 0.197994
v -0.202671 -0.095671 0.083949
v -0.197994 -0.131448 0.082012
v -0.202671 -0.095671 -0.083949
v -0.197994 -0.131448 -0.082012
v -0.082012 -0.131448 -0.197994
v -0.083949 -0.095671 -0.202671
vt 0.547588 0.382662
vt 0.559063 0.424417
vt 0.466384 0.444614
vt 0.459446 0.401870
vt 0.372076 0.454771
vt 0.369754 0.411529
vt 0.277222 0.454771
vt 0.279543 0.411529
vt 0.182913 0.444614
vt 0.189851 0.401870
vt 0.090234 0.424418
vt 0.101709 0.382662
vt 0.000250 0.394414
vt 0.016131 0.354127
vt 0.092032 0.226590
vt 0.016040 0.194573
vt 0.109572 0.000250
vt 0.165761 0.023924
vt 0.715197 0.316592
vt 0.735300 0.354947
vt 0.649047 0.394413
vt 0.633166 0.354127
vt 0.664872 0.854061
vt 0.594466 0.854060
vt 0.629669 0.769072
vt 0.831367 0.029916
vt 0.747325 0.030183
vt 0.745272 0.025136
vt 0.833512 0.024905
vt 0.466808 0.881042
vt 0.514745 0.831516
vt 0.519504 0.833451
vt 0.468801 0.885768
vt 0.319803 0.844273
vt 0.319803 0.750767
vt 0.325504 0.752953
vt 0.325404 0.841827
vt 0.688106 0.090092
vt 0.683079 0.087974
vt 0.398208 0.881293
vt 0.396230 0.886021
vt 0.385166 0.684084
vt 0.387660 0.689673
vt 0.688439 0.174533
vt 0.683378 0.176570
vt 0.349502 0.832491
vt 0.344746 0.834441
vt 0.493342 0.543485
vt 0.519746 0.664645
vt 0.432327 0.678836
vt 0.419049 0.555544
vt 0.343892 0.683584
vt 0.343892 0.559580
vt 0.255457 0.678836
vt 0.268735 0.555544
vt 0.168039 0.664645
vt 0.194442 0.543485
vt 0.082642 0.641176
vt 0.121867 0.523539
vt 0.000250 0.608698
vt 0.051846 0.495937
vt 0.635939 0.495937
vt 0.687534 0.608698
vt 0.605142 0.641176
vt 0.565917 0.523539
vt 0.397419 0.973930
vt 0.388209 0.946309
vt 0.459109 0.926824
vt 0.465308 0.955272
vt 0.331917 0.999750
vt 0.319803 0.973274
vt 0.812801 0.973930
vt 0.822011 0.946309
vt 0.890417 0.973274
vt 0.878303 0.999750
vt 0.744912 0.955272
vt 0.751111 0.926824
vt 0.675415 0.943991
vt 0.678533 0.915043
vt 0.605110 0.940216
vt 0.605110 0.911101
vt 0.534805 0.943991
vt 0.531687 0.915043
vt 0.844123 0.000250
vt 0.920740 0.077720
vt 0.914118 0.080608
vt 0.841479 0.006985
vt 0.747994 0.234227
vt 0.745849 0.239236
vt 0.349239 0.763168
vt 0.344480 0.761234
vt 0.920815 0.186767
vt 0.914074 0.184162
vt 0.832023 0.234162
vt 0.834074 0.239210
vt 0.397176 0.713642
vt 0.395183 0.708917
vt 0.844109 0.264096
vt 0.841189 0.257478
vt 0.891069 0.174196
vt 0.896098 0.176307
vt 0.289617 0.888646
vt 0.303782 0.809238
vt 0.319303 0.805835
vt 0.302709 0.897329
vt 0.257247 0.742335
vt 0.265913 0.729376
vt 0.101635 0.700240
vt 0.100357 0.684084
vt 0.143040 0.684084
vt 0.144519 0.700889
vt 0.031989 0.741666
vt 0.018431 0.732283
vt 0.016440 0.823922
vt 0.000250 0.827610
vt 0.062355 0.888122
vt 0.054774 0.901488
vt 0.333716 0.275425
vt 0.416178 0.275425
vt 0.416178 0.316092
vt 0.333716 0.316092
vt 0.224615 0.929736
vt 0.226130 0.945428
vt 0.835235 0.600024
vt 0.792121 0.643138
vt 0.761635 0.569538
vt 0.579060 0.250886
vt 0.498231 0.267218
vt 0.466103 0.053964
vt 0.525868 0.041888
vt 0.344461 0.060032
vt 0.405434 0.060032
vt 0.251663 0.267218
vt 0.170835 0.250886
vt 0.224027 0.041888
vt 0.283791 0.053964
vt 0.657862 0.226590
vt 0.584134 0.023924
vt 0.688034 0.600024
vt 0.688034 0.539051
vt 0.731148 0.495937
vt 0.792121 0.495937
vt 0.835235 0.539051
vt 0.731149 0.643138
vt 0.544681 0.733869
vt 0.594466 0.684084
vt 0.664872 0.684084
vt 0.714657 0.733869
vt 0.714657 0.804276
vt 0.544681 0.804276
vt 0.185178 0.946220
vt 0.184061 0.929417
vt 0.076243 0.264066
vt 0.000250 0.232049
vt 0.372076 0.495437
vt 0.277222 0.495437
vt 0.225345 0.720263
vt 0.234288 0.707840
vt 0.098566 0.904893
vt 0.089590 0.918751
vt 0.752221 0.391926
vt 0.665967 0.431392
vt 0.738147 0.006866
vt 0.665105 0.080098
vt 0.665072 0.183645
vt 0.737881 0.257156
vt 0.895806 0.087662
vt 0.387785 0.904893
vt 0.476324 0.905012
vt 0.538480 0.841731
vt 0.519238 0.760243
vt 0.538580 0.752857
vt 0.467754 0.708663
vt 0.476199 0.689791
vt 0.385554 0.910585
vt 0.514482 0.762193
vt 0.478818 0.910600
vt 0.465775 0.713391
vt 0.544181 0.843917
vt 0.544181 0.750411
vt 0.735228 0.000250
vt 0.478429 0.684100
vt 0.658362 0.077486
vt 0.658449 0.186542
vt 0.890744 0.089691
vt 0.735237 0.263886
vn 0.0000 -0.1296 -0.9916
vn 0.7011 -0.1296 -0.7011
vn 0.9916 -0.1296 -0.0000
vn 0.7011 -0.1296 0.7011
vn 0.0000 -0.1296 0.9916
vn -0.7011 -0.1296 0.7011
vn 0.9927 0.1204 -0.0000
vn -0.9916 -0.1296 0.0000
vn -0.7011 -0.1296 -0.7011
vn 0.0000 -1.0000 -0.0000
vn -0.3530 -0.8665 -0.3530
vn -0.4641 -0.7544 -0.4641
vn -0.5586 0.8294 0.0000
vn -0.4992 -0.8665 0.0000
vn -0.0000 -0.7544 -0.6564
vn -0.3950 0.8294 -0.3950
vn -0.3530 -0.8665 0.3530
vn 0.4641 -0.7544 -0.4641
vn 0.0000 0.8172 0.5764
vn 0.0000 -0.8665 0.4992
vn 0.6564 -0.7544 -0.0000
vn -0.4076 0.8172 0.4076
vn 0.3530 -0.8665 0.3530
vn 0.4641 -0.7544 0.4641
vn -0.5764 0.8172 0.0000
vn 0.4992 -0.8665 -0.0000
vn 0.0000 1.0000 -0.0000
vn -0.3827 0.0000 0.9239
vn -1.0000 0.0000 0.0000
vn 0.0000 0.1204 -0.9927
vn -0.9927 0.1204 0.0000
vn 0.0000 0.1204 0.9927
vn 0.7020 0.1204 0.7020
vn 0.7020 0.1204 -0.7020
vn -0.7020 0.1204 -0.7020
vn -0.7020 0.1204 0.7020
vn 0.3827 0.0000 -0.9239
vn 1.0000 0.0000 -0.0000
vn -0.3827 0.0000 -0.9239
vn 0.3827 0.0000 0.9239
vn -0.3950 0.8294 0.3950
vn -0.6564 -0.7544 0.0000
vn -0.0000 0.8294 0.5586
vn -0.4641 -0.7544 0.4641
vn 0.3950 0.8294 0.3950
vn 0.0000 -0.7544 0.6564
vn 0.5586 0.8294 -0.0000
vn 0.4076 0.8172 0.4076
vn 0.3950 0.8294 -0.3950
vn 0.5764 0.8172 -0.0000
vn 0.0000 0.8294 -0.5586
vn 0.4076 0.8172 -0.4076
vn -0.0000 -0.8665 -0.4992
vn -0.0000 0.8172 -0.5764
vn 0.3530 -0.8665 -0.3530
vn -0.4076 0.8172 -0.4076
usemtl Material.001
s off
f 17/1/1 50/2/1 49/3/1 18/4/1
f 18/4/2 49/3/2 51/5/2 19/6/2
f 19/6/3 51/5/3 52/7/3 20/8/3
f 20/8/4 52/7/4 53/9/4 21/10/4
f 21/10/5 53/9/5 54/11/5 22/12/5
f 22/12/6 54/11/6 55/13/6 23/14/6
f 16/15/7 14/16/7 63/17/7 64/18/7
f 23/19/8 55/20/8 56/21/8 24/22/8
f 24/22/9 56/21/9 50/2/9 17/1/9
f 9/23/10 11/24/10 67/25/10
f 32/26/11 31/27/11 90/28/11 75/29/11
f 36/30/12 35/31/12 96/32/12 98/33/12
f 47/34/13 48/35/13 103/36/13 101/37/13
f 31/27/14 30/38/14 89/39/14 90/28/14
f 37/40/15 36/30/15 98/33/15 100/41/15
f 48/35/16 41/42/16 106/43/16 103/36/16
f 30/38/17 29/44/17 88/45/17 89/39/17
f 38/46/18 37/40/18 100/41/18 102/47/18
f 41/48/1 32/49/1 25/50/1 42/51/1
f 42/51/2 25/50/2 26/52/2 43/53/2
f 43/53/3 26/52/3 27/54/3 44/55/3
f 44/55/4 27/54/4 28/56/4 45/57/4
f 45/57/5 28/56/5 29/58/5 46/59/5
f 46/59/6 29/58/6 30/60/6 47/61/6
f 47/62/8 30/63/8 31/64/8 48/65/8
f 48/65/9 31/64/9 32/49/9 41/48/9
f 15/66/9 39/67/9 40/68/9 1/69/9
f 13/70/8 38/71/8 39/67/8 15/66/8
f 11/72/6 37/73/6 38/74/6 13/75/6
f 9/76/5 36/77/5 37/73/5 11/72/5
f 7/78/4 35/79/4 36/77/4 9/76/4
f 5/80/3 34/81/3 35/79/3 7/78/3
f 3/82/2 33/83/2 34/81/2 5/80/2
f 1/69/1 40/68/1 33/83/1 3/82/1
f 17/84/19 18/85/19 83/86/19 76/87/19
f 29/44/20 28/88/20 87/89/20 88/45/20
f 39/90/21 38/46/21 102/47/21 104/91/21
f 18/85/22 19/92/22 82/93/22 83/86/22
f 28/88/23 27/94/23 86/95/23 87/89/23
f 40/96/24 39/90/24 104/91/24 105/97/24
f 19/92/25 20/98/25 81/99/25 82/93/25
f 27/94/26 26/100/26 85/101/26 86/95/26
f 2/102/27 4/103/27 49/104/27 50/105/27
f 4/103/27 6/106/27 51/107/27 49/104/27
f 8/108/28 52/109/28 74/110/28 70/111/28
f 8/108/27 10/112/27 53/113/27 52/109/27
f 10/112/27 12/114/27 54/115/27 53/113/27
f 12/114/27 14/116/27 55/117/27 54/115/27
f 6/118/29 8/119/29 70/120/29 69/121/29
f 16/122/27 2/102/27 50/105/27 56/123/27
f 59/124/27 57/125/27 65/126/27
f 12/127/30 10/128/30 61/129/30 62/130/30
f 8/119/31 6/118/31 59/131/31 60/132/31
f 4/133/32 2/134/32 58/135/32 57/136/32
f 2/134/33 16/15/33 64/18/33 58/135/33
f 14/137/34 12/127/34 62/130/34 63/138/34
f 10/128/35 8/119/35 60/132/35 61/129/35
f 6/118/36 4/133/36 57/136/36 59/131/36
f 64/139/27 63/140/27 65/126/27
f 62/141/27 61/142/27 65/126/27
f 60/143/27 59/124/27 65/126/27
f 57/125/27 58/144/27 65/126/27
f 58/144/27 64/139/27 65/126/27
f 63/140/27 62/141/27 65/126/27
f 61/142/27 60/143/27 65/126/27
f 15/145/10 1/146/10 67/25/10
f 1/146/10 3/147/10 67/25/10
f 5/148/10 7/149/10 67/25/10
f 11/24/10 13/150/10 67/25/10
f 7/149/10 9/23/10 67/25/10
f 13/150/10 15/145/10 67/25/10
f 3/147/10 5/148/10 67/25/10
f 16/122/37 56/123/37 72/151/37 68/152/37
f 14/16/38 16/15/38 68/153/38 66/154/38
f 52/7/38 51/5/38 73/155/38 74/156/38
f 51/107/39 6/106/39 69/157/39 73/158/39
f 55/117/40 14/116/40 66/159/40 71/160/40
f 56/21/29 55/20/29 71/161/29 72/162/29
f 66/159/27 68/152/27 72/151/27 71/160/27
f 69/157/27 70/111/27 74/110/27 73/158/27
f 90/28/9 77/163/9 76/87/9 75/29/9
f 89/39/8 78/164/8 77/163/8 90/28/8
f 88/45/6 79/165/6 78/164/6 89/39/6
f 87/89/5 80/166/5 79/165/5 88/45/5
f 86/95/4 81/99/4 80/166/4 87/89/4
f 85/101/3 82/93/3 81/99/3 86/95/3
f 84/167/2 83/86/2 82/93/2 85/101/2
f 75/29/1 76/87/1 83/86/1 84/167/1
f 104/91/9 103/36/9 106/43/9 105/97/9
f 102/47/8 101/37/8 103/36/8 104/91/8
f 100/41/6 99/168/6 101/37/6 102/47/6
f 98/33/5 97/169/5 99/168/5 100/41/5
f 96/32/4 95/170/4 97/169/4 98/33/4
f 94/171/3 93/172/3 95/170/3 96/32/3
f 92/173/2 91/174/2 93/172/2 94/171/2
f 105/97/1 106/43/1 91/174/1 92/173/1
f 46/175/41 47/34/41 101/37/41 99/168/41
f 35/31/42 34/176/42 94/171/42 96/32/42
f 45/177/43 46/175/43 99/168/43 97/169/43
f 34/176/44 33/178/44 92/173/44 94/171/44
f 44/179/45 45/177/45 97/169/45 95/170/45
f 33/178/46 40/96/46 105/97/46 92/173/46
f 43/180/47 44/179/47 95/170/47 93/172/47
f 24/181/48 17/84/48 76/87/48 77/163/48
f 42/182/49 43/180/49 93/172/49 91/174/49
f 23/183/50 24/181/50 77/163/50 78/164/50
f 41/42/51 42/182/51 91/174/51 106/43/51
f 22/184/52 23/183/52 78/164/52 79/165/52
f 25/185/53 32/26/53 75/29/53 84/167/53
f 21/186/54 22/184/54 79/165/54 80/166/54
f 26/100/55 25/185/55 84/167/55 85/101/55
f 20/98/56 21/186/56 80/166/56 81/99/56
