# Blender v2.79 (sub 0) OBJ File: 'barril_de_madeira.blend'
# www.blender.org
mtllib barril_de_madeira.mtl
o Cylinder
v -0.000000 -1.496704 -0.776065
v -0.000000 1.496704 -0.776065
v 0.548761 -1.496704 -0.548761
v 0.548761 1.496704 -0.548761
v 0.776065 -1.496704 0.000000
v 0.776065 1.496704 0.000000
v 0.548761 -1.496704 0.548761
v 0.548761 1.496704 0.548761
v -0.000000 -1.496704 0.776065
v -0.000000 1.496704 0.776065
v -0.548761 -1.496704 0.548761
v -0.548761 1.496704 0.548761
v -0.776065 -1.496704 -0.000000
v -0.776065 1.496704 -0.000000
v -0.548761 -1.496704 -0.548761
v -0.548761 1.496704 -0.548761
v -0.000000 1.405160 -0.959795
v 0.678678 1.405160 -0.678678
v 0.959795 1.405160 0.000000
v 0.678678 1.405160 0.678678
v -0.000000 1.405160 0.959795
v -0.678678 1.405160 0.678678
v -0.959795 1.405160 -0.000000
v -0.678678 1.405160 -0.678678
v 0.678678 1.219380 -0.678678
v 0.959795 1.219380 0.000000
v 0.678678 1.219380 0.678678
v -0.000000 1.219380 0.959795
v -0.678678 1.219380 0.678678
v -0.959795 1.219380 -0.000000
v -0.678678 1.219380 -0.678678
v -0.000000 1.219380 -0.959795
v 0.796649 0.634899 -0.796649
v 1.126631 0.634899 0.000000
v 0.796649 0.634899 0.796649
v -0.000000 0.634899 1.126631
v -0.796649 0.634899 0.796648
v -1.126631 0.634899 -0.000000
v -0.796649 0.634899 -0.796649
v 0.000000 0.634899 -1.126631
v 0.796649 0.441561 -0.796649
v 1.126631 0.441561 0.000000
v 0.796649 0.441561 0.796649
v -0.000000 0.441561 1.126631
v -0.796649 0.441561 0.796648
v -1.126631 0.441561 -0.000000
v -0.796649 0.441561 -0.796649
v 0.000000 0.441561 -1.126631
v 0.796649 -0.456819 -0.796649
v 1.126631 -0.456819 0.000000
v 0.796649 -0.456819 0.796649
v -0.000000 -0.456819 1.126631
v -0.796649 -0.456819 0.796648
v -1.126631 -0.456819 -0.000000
v -0.796649 -0.456819 -0.796649
v 0.000000 -0.456820 -1.126631
v 0.796649 -0.653122 -0.796649
v 1.126631 -0.653122 0.000000
v 0.796649 -0.653122 0.796649
v -0.000000 -0.653122 1.126631
v -0.796649 -0.653122 0.796648
v -1.126631 -0.653122 -0.000000
v -0.796649 -0.653122 -0.796649
v 0.000000 -0.653122 -1.126631
v 0.678678 -1.228974 -0.678678
v 0.959795 -1.228974 0.000000
v 0.678678 -1.228974 0.678678
v -0.000000 -1.228974 0.959795
v -0.678678 -1.228974 0.678678
v -0.959795 -1.228974 -0.000000
v -0.678678 -1.228974 -0.678678
v -0.000000 -1.228974 -0.959795
v 0.678678 -1.416406 -0.678678
v 0.959795 -1.416406 0.000000
v 0.678678 -1.416406 0.678678
v -0.000000 -1.416406 0.959795
v -0.678678 -1.416406 0.678678
v -0.959795 -1.416406 -0.000000
v -0.678678 -1.416406 -0.678678
v -0.000000 -1.416406 -0.959795
v -0.000000 1.252359 -0.985610
v -0.000000 1.443136 -0.985610
v -0.696932 1.443136 -0.696932
v -0.985610 1.443136 -0.000000
v -0.696932 1.443136 0.696931
v -0.000000 1.443136 0.985610
v 0.696932 1.443136 0.696932
v 0.985610 1.443136 0.000000
v 0.696932 1.443136 -0.696932
v 0.696932 1.252359 -0.696932
v 0.985610 1.252359 0.000000
v 0.696932 1.252359 0.696932
v -0.000000 1.252359 0.985610
v -0.696932 1.252359 0.696931
v -0.985610 1.252359 -0.000000
v -0.696932 1.252359 -0.696932
v 0.000000 0.453619 -1.156934
v 0.000000 0.652157 -1.156934
v -0.818076 0.652157 -0.818075
v -1.156934 0.652157 -0.000000
v -0.818076 0.652157 0.818075
v -0.000000 0.652157 1.156934
v 0.818075 0.652157 0.818075
v 1.156934 0.652157 0.000000
v 0.818075 0.652157 -0.818075
v 0.818075 0.453619 -0.818075
v 1.156934 0.453619 0.000000
v 0.818075 0.453619 0.818075
v -0.000000 0.453619 1.156934
v -0.818076 0.453619 0.818075
v -1.156934 0.453619 -0.000000
v -0.818076 0.453619 -0.818075
v 0.000000 -0.670507 -1.156934
v 0.000000 -0.468925 -1.156934
v -0.818076 -0.468925 -0.818075
v -1.156934 -0.468925 -0.000000
v -0.818076 -0.468925 0.818075
v -0.000000 -0.468925 1.156934
v 0.818075 -0.468925 0.818075
v 1.156934 -0.468925 0.000000
v 0.818075 -0.468925 -0.818075
v 0.818075 -0.670507 -0.818075
v 1.156934 -0.670507 0.000000
v 0.818075 -0.670507 0.818075
v -0.000000 -0.670507 1.156934
v -0.818076 -0.670507 0.818075
v -1.156934 -0.670507 -0.000000
v -0.818076 -0.670507 -0.818075
v -0.000000 -1.454319 -0.985610
v -0.000000 -1.261846 -0.985610
v -0.696932 -1.261846 -0.696932
v -0.985610 -1.261846 -0.000000
v -0.696932 -1.261846 0.696931
v -0.000000 -1.261846 0.985610
v 0.696932 -1.261846 0.696932
v 0.985610 -1.261846 0.000000
v 0.696932 -1.261846 -0.696932
v 0.696932 -1.454319 -0.696932
v 0.985610 -1.454319 0.000000
v 0.696932 -1.454319 0.696932
v -0.000000 -1.454319 0.985610
v -0.696932 -1.454319 0.696931
v -0.985610 -1.454319 -0.000000
v -0.696932 -1.454319 -0.696932
v 0.000000 -0.007629 -1.165084
v 0.823838 -0.007629 -0.823838
v 1.165084 -0.007629 0.000000
v 0.823838 -0.007629 0.823838
v -0.000000 -0.007629 1.165084
v -0.823839 -0.007629 0.823838
v -1.165084 -0.007629 -0.000000
v -0.823839 -0.007629 -0.823838
v -0.000000 -1.496704 -0.884244
v 0.625255 -1.496704 -0.625255
v 0.625255 1.496704 -0.625255
v -0.000000 1.496704 -0.884244
v 0.884244 -1.496704 0.000000
v 0.884244 1.496704 0.000000
v 0.625255 -1.496704 0.625255
v 0.625255 1.496704 0.625255
v -0.000000 -1.496704 0.884244
v -0.000000 1.496704 0.884244
v -0.625255 -1.496704 0.625255
v -0.625255 1.496704 0.625255
v -0.884245 -1.496704 -0.000000
v -0.884245 1.496704 -0.000000
v -0.625255 -1.496704 -0.625255
v -0.625255 1.496704 -0.625255
v -0.000000 -1.356266 -0.776065
v 0.548761 -1.356266 -0.548761
v 0.548761 1.356266 -0.548761
v -0.000000 1.356266 -0.776065
v 0.776065 -1.356266 0.000000
v 0.776065 1.356266 0.000000
v 0.548761 -1.356266 0.548761
v 0.548761 1.356266 0.548761
v -0.000000 -1.356266 0.776065
v -0.000000 1.356266 0.776065
v -0.548761 -1.356266 0.548761
v -0.548761 1.356266 0.548761
v -0.776065 -1.356266 -0.000000
v -0.776065 1.356266 -0.000000
v -0.548761 -1.356266 -0.548761
v -0.548761 1.356266 -0.548761
v -0.000000 1.356266 0.000000
v -0.000000 -1.356266 0.000000
vt 0.477294 0.036402
vt 0.452296 0.092239
vt 0.382013 0.069283
vt 0.394794 0.009456
vt 0.308485 0.061517
vt 0.308485 0.000339
vt 0.234958 0.069283
vt 0.222177 0.009456
vt 0.164675 0.092239
vt 0.139677 0.036402
vt 0.100739 0.129372
vt 0.064627 0.079989
vt 0.045971 0.179042
vt 0.000339 0.138293
vt 0.616631 0.138293
vt 0.571000 0.179042
vt 0.516232 0.129372
vt 0.552344 0.079989
vt 0.452344 0.903688
vt 0.452558 0.858327
vt 0.540229 0.858443
vt 0.540017 0.903757
vt 0.627882 0.858552
vt 0.627670 0.903858
vt 0.715530 0.858658
vt 0.715323 0.903960
vt 0.803171 0.858750
vt 0.802996 0.904028
vt 0.890758 0.858721
vt 0.890846 0.903871
vt 0.978598 0.857506
vt 0.980732 0.903387
vt 0.274608 0.904330
vt 0.276132 0.857505
vt 0.364757 0.858160
vt 0.364494 0.903846
vt 0.163735 0.271202
vt 0.138757 0.216271
vt 0.221138 0.188963
vt 0.233917 0.247938
vt 0.307433 0.179721
vt 0.307433 0.240064
vt 0.393728 0.188963
vt 0.380949 0.247938
vt 0.476109 0.216271
vt 0.451131 0.271201
vt 0.550839 0.260405
vt 0.514794 0.308800
vt 0.614526 0.319364
vt 0.569051 0.359028
vt 0.045815 0.359028
vt 0.000339 0.319364
vt 0.064027 0.260405
vt 0.100072 0.308800
vt 0.364583 0.948995
vt 0.452170 0.948967
vt 0.276742 0.950211
vt 0.890583 0.949557
vt 0.979208 0.950212
vt 0.715111 0.949274
vt 0.802783 0.949389
vt 0.627459 0.949165
vt 0.539810 0.949059
vt 0.858764 0.772466
vt 0.918548 0.772466
vt 0.922714 0.782526
vt 0.854598 0.782526
vt 0.889975 0.289678
vt 0.847701 0.247405
vt 0.919866 0.217513
vt 0.889975 0.144669
vt 0.847701 0.102396
vt 0.919866 0.072504
vt 0.847701 0.187621
vt 0.889975 0.145348
vt 0.949758 0.145348
vt 0.992031 0.187622
vt 0.992031 0.247405
vt 0.949758 0.289678
vt 0.949758 0.144669
vt 0.992031 0.102396
vt 0.992031 0.042613
vt 0.949758 0.000339
vt 0.889975 0.000339
vt 0.847701 0.042613
vt 0.567689 0.456221
vt 0.556428 0.460210
vt 0.518726 0.403479
vt 0.526766 0.394642
vt 0.458693 0.371294
vt 0.461603 0.359707
vt 0.390576 0.371294
vt 0.387666 0.359707
vt 0.330542 0.403479
vt 0.322503 0.394642
vt 0.292840 0.460211
vt 0.281579 0.456221
vt 0.286417 0.528024
vt 0.274608 0.529828
vt 0.118065 0.651430
vt 0.058985 0.649829
vt 0.052101 0.633914
vt 0.123466 0.635130
vt 0.546025 0.597994
vt 0.536470 0.590824
vt 0.562851 0.528023
vt 0.574660 0.529828
vt 0.053121 0.964971
vt 0.000339 0.918881
vt 0.015697 0.910935
vt 0.058521 0.948671
vt 0.656128 0.814543
vt 0.725199 0.813127
vt 0.726899 0.817195
vt 0.654537 0.818653
vt 0.445209 0.826096
vt 0.502400 0.767981
vt 0.505481 0.769292
vt 0.446450 0.829203
vt 0.774427 0.765199
vt 0.778492 0.766900
vt 0.684338 0.228876
vt 0.617310 0.162279
vt 0.622556 0.160021
vt 0.686385 0.223526
vt 0.501463 0.686283
vt 0.504569 0.685039
vt 0.773928 0.697253
vt 0.777965 0.695517
vt 0.617759 0.067734
vt 0.623057 0.069862
vt 0.443441 0.628757
vt 0.444765 0.625682
vt 0.724834 0.649676
vt 0.726456 0.645576
vt 0.684866 0.000866
vt 0.687137 0.006104
vt 0.656025 0.650528
vt 0.654299 0.646461
vt 0.779609 0.000339
vt 0.777541 0.005661
vt 0.607497 0.699344
vt 0.603436 0.697653
vt 0.847022 0.066659
vt 0.841787 0.068946
vt 0.651247 0.359707
vt 0.758387 0.359707
vt 0.756852 0.363677
vt 0.652951 0.363611
vt 0.607180 0.767417
vt 0.603136 0.769130
vt 0.847022 0.161165
vt 0.841720 0.159010
vt 0.834533 0.434944
vt 0.830635 0.436669
vt 0.779046 0.226986
vt 0.776793 0.221776
vt 0.834517 0.541900
vt 0.830552 0.540345
vt 0.758624 0.617398
vt 0.756919 0.613495
vt 0.651484 0.617397
vt 0.653019 0.613428
vt 0.642883 0.846172
vt 0.575339 0.779995
vt 0.581088 0.777512
vt 0.645129 0.840335
vt 0.575339 0.542162
vt 0.579238 0.540437
vt 0.576133 0.685469
vt 0.581918 0.687816
vt 0.456846 0.598673
vt 0.532192 0.674420
vt 0.528021 0.676244
vt 0.455178 0.602915
vt 0.575354 0.435206
vt 0.579320 0.436761
vt 0.643368 0.618586
vt 0.645846 0.624328
vt 0.532530 0.781275
vt 0.528282 0.779621
vt 0.103076 0.370416
vt 0.100166 0.359707
vt 0.174103 0.359707
vt 0.171193 0.370416
vt 0.237871 0.397128
vt 0.229941 0.404891
vt 0.273929 0.461676
vt 0.263161 0.464358
vt 0.272360 0.535596
vt 0.261715 0.532459
vt 0.233594 0.598555
vt 0.226001 0.590462
vt 0.168295 0.633235
vt 0.165842 0.622413
vt 0.011107 0.464358
vt 0.000339 0.461676
vt 0.036398 0.397128
vt 0.044328 0.404891
vt 0.644542 0.151631
vt 0.695709 0.201945
vt 0.644539 0.079549
vt 0.695623 0.028115
vt 0.768115 0.027258
vt 0.819856 0.077459
vt 0.820340 0.149206
vt 0.768251 0.199745
vt 0.360660 0.626285
vt 0.351868 0.602847
vt 0.301654 0.686303
vt 0.278852 0.675957
vt 0.302324 0.770542
vt 0.278873 0.779328
vt 0.362285 0.829714
vt 0.351893 0.852495
vt 0.455220 0.852651
vt 0.602521 0.447299
vt 0.661916 0.387486
vt 0.603042 0.531372
vt 0.663434 0.590148
vt 0.747955 0.589619
vt 0.807350 0.529807
vt 0.806830 0.445734
vt 0.746437 0.386957
vt 0.735985 0.623905
vt 0.800015 0.687021
vt 0.799948 0.776786
vt 0.735304 0.839375
vt 0.363605 0.826639
vt 0.305432 0.769297
vt 0.649017 0.149736
vt 0.697455 0.197386
vt 0.304732 0.687616
vt 0.649053 0.081392
vt 0.745038 0.390289
vt 0.663263 0.390842
vt 0.361906 0.629389
vt 0.697548 0.032606
vt 0.803486 0.447099
vt 0.766337 0.031799
vt 0.804031 0.528388
vt 0.815397 0.079393
vt 0.746608 0.586264
vt 0.815835 0.147331
vt 0.664833 0.586816
vt 0.350040 0.598673
vt 0.766333 0.195264
vt 0.606386 0.530006
vt 0.274608 0.674300
vt 0.737749 0.845103
vt 0.605841 0.448718
vt 0.274698 0.781154
vt 0.805753 0.779148
vt 0.350229 0.856737
vt 0.805753 0.684522
vt 0.457044 0.856826
vt 0.738258 0.618077
vt 0.989601 0.412040
vt 0.947328 0.369767
vt 0.951495 0.359707
vt 0.999661 0.407873
vt 0.960821 0.730193
vt 0.970880 0.734360
vt 0.989601 0.471823
vt 0.999660 0.475990
vt 0.960821 0.670410
vt 0.970880 0.666243
vt 0.947328 0.514096
vt 0.951495 0.524156
vt 0.918548 0.628136
vt 0.922714 0.618077
vt 0.887545 0.514096
vt 0.883378 0.524156
vt 0.858764 0.628136
vt 0.854598 0.618077
vt 0.845271 0.471823
vt 0.835212 0.475990
vt 0.816491 0.670410
vt 0.806432 0.666243
vt 0.845271 0.412040
vt 0.835212 0.407873
vt 0.816491 0.730193
vt 0.806432 0.734360
vt 0.887545 0.369767
vt 0.883378 0.359707
vt 0.124486 0.966188
vt 0.117601 0.950273
vt 0.052101 0.800390
vt 0.123466 0.801607
vt 0.118065 0.817906
vt 0.058985 0.816305
vt 0.117601 0.783797
vt 0.160139 0.745215
vt 0.176247 0.751417
vt 0.124486 0.799711
vt 0.016448 0.688411
vt 0.000339 0.682209
vt 0.176247 0.917893
vt 0.160139 0.911691
vt 0.000339 0.848685
vt 0.016448 0.854887
vt 0.160890 0.689167
vt 0.176247 0.681221
vt 0.015697 0.744458
vt 0.000339 0.752405
vt 0.176247 0.847697
vt 0.160890 0.855643
vt 0.058521 0.782195
vt 0.053121 0.798495
vn 0.3700 0.2550 -0.8933
vn 0.8933 0.2550 -0.3700
vn 0.8933 0.2550 0.3700
vn 0.3700 0.2550 0.8933
vn -0.3700 0.2550 0.8933
vn -0.8933 0.2550 0.3700
vn -0.8933 0.2550 -0.3700
vn -0.3700 0.2550 -0.8933
vn 0.3815 0.0788 -0.9210
vn 0.9210 0.0788 -0.3815
vn 0.9210 0.0788 0.3815
vn 0.3815 0.0788 0.9210
vn -0.3815 0.0788 0.9210
vn -0.9210 0.0788 0.3815
vn -0.9210 0.0788 -0.3815
vn -0.3815 0.0788 -0.9210
vn 0.3697 -0.2586 -0.8925
vn 0.8925 -0.2586 -0.3697
vn 0.8925 -0.2586 0.3697
vn 0.3697 -0.2586 0.8925
vn -0.3697 -0.2586 0.8925
vn -0.8925 -0.2586 0.3697
vn -0.8925 -0.2586 -0.3697
vn -0.3697 -0.2586 -0.8925
vn -0.3815 -0.0788 -0.9210
vn -0.9210 -0.0788 -0.3815
vn -0.9210 -0.0788 0.3815
vn 0.3815 -0.0788 0.9210
vn 0.9210 -0.0788 0.3815
vn 0.9210 -0.0788 -0.3815
vn 0.3815 -0.0788 -0.9210
vn 0.0000 1.0000 0.0000
vn 0.0000 -1.0000 0.0000
vn 0.3043 0.6063 -0.7347
vn 0.7347 0.6063 -0.3043
vn 0.7347 0.6063 0.3043
vn 0.3043 0.6063 0.7347
vn -0.3043 0.6063 0.7347
vn -0.7347 0.6063 0.3043
vn 0.3827 0.0000 -0.9239
vn -0.7347 0.6063 -0.3043
vn -0.3043 0.6063 -0.7347
vn 0.3827 0.0000 0.9239
vn 0.3097 0.5873 -0.7478
vn 0.3655 -0.9184 0.1514
vn 0.7478 0.5873 -0.3097
vn -0.3101 -0.5860 -0.7486
vn 0.3655 -0.9184 -0.1514
vn 0.7478 0.5873 0.3097
vn -0.7486 -0.5860 -0.3101
vn 0.1514 -0.9184 -0.3655
vn 0.3097 0.5873 0.7478
vn -0.7486 -0.5860 0.3101
vn -0.3097 0.5873 0.7478
vn -0.3101 -0.5860 0.7486
vn -0.7478 0.5873 0.3097
vn 0.3101 -0.5860 0.7486
vn 0.1519 0.9179 -0.3667
vn -0.7478 0.5873 -0.3097
vn 0.7486 -0.5860 0.3101
vn 0.3667 0.9179 -0.1519
vn -0.3097 0.5873 -0.7478
vn 0.7486 -0.5860 -0.3101
vn 0.3667 0.9179 0.1519
vn 0.3101 -0.5860 -0.7486
vn 0.1519 0.9179 0.3667
vn -0.1519 0.9179 0.3667
vn 0.3239 -0.5325 0.7820
vn -0.3667 0.9179 0.1519
vn 0.7820 -0.5325 0.3239
vn -0.2008 0.8513 0.4848
vn -0.3667 0.9179 -0.1519
vn 0.7820 -0.5325 -0.3239
vn -0.4848 0.8513 0.2008
vn -0.1519 0.9179 -0.3667
vn 0.2888 -0.6561 -0.6973
vn 0.6973 -0.6561 -0.2888
vn 0.6973 -0.6561 0.2888
vn 0.2888 -0.6561 0.6973
vn -0.2888 -0.6561 0.6973
vn -0.6973 -0.6561 0.2888
vn -0.6973 -0.6561 -0.2888
vn -0.2888 -0.6561 -0.6973
vn -0.3827 0.0000 -0.9239
vn -0.9239 0.0000 -0.3827
vn -0.9239 0.0000 0.3827
vn -0.3827 0.0000 0.9239
vn 0.9239 0.0000 0.3827
vn 0.9239 0.0000 -0.3827
vn 0.1514 -0.9184 0.3655
vn -0.1514 -0.9184 0.3655
vn 0.3241 0.5318 0.7824
vn -0.3655 -0.9184 0.1514
vn 0.7824 0.5318 0.3241
vn -0.2019 -0.8495 0.4874
vn -0.3655 -0.9184 -0.1514
vn 0.7824 0.5318 -0.3241
vn -0.4874 -0.8495 0.2019
vn -0.1514 -0.9184 -0.3655
vn 0.3241 0.5318 -0.7824
vn -0.4874 -0.8495 -0.2019
vn -0.3241 0.5318 -0.7824
vn -0.2019 -0.8495 -0.4874
vn -0.7824 0.5318 -0.3241
vn 0.2019 -0.8495 -0.4874
vn 0.2008 0.8513 0.4848
vn -0.7824 0.5318 0.3241
vn 0.4874 -0.8495 -0.2019
vn 0.4848 0.8513 0.2008
vn -0.3241 0.5318 0.7824
vn -0.3239 -0.5325 0.7820
vn 0.4874 -0.8495 0.2019
vn 0.4848 0.8513 -0.2008
vn -0.7820 -0.5325 0.3239
vn 0.2019 -0.8495 0.4874
vn 0.2008 0.8513 -0.4848
vn -0.7820 -0.5325 -0.3239
vn -0.2008 0.8513 -0.4848
vn -0.3239 -0.5325 -0.7820
vn -0.4848 0.8513 -0.2008
vn 0.3239 -0.5325 -0.7820
vn -0.3815 -0.0788 0.9210
usemtl Material.001
s off
f 40/1/1 32/2/1 25/3/1 33/4/1
f 33/4/2 25/3/2 26/5/2 34/6/2
f 34/6/3 26/5/3 27/7/3 35/8/3
f 35/8/4 27/7/4 28/9/4 36/10/4
f 36/10/5 28/9/5 29/11/5 37/12/5
f 37/12/6 29/11/6 30/13/6 38/14/6
f 38/15/7 30/16/7 31/17/7 39/18/7
f 39/18/8 31/17/8 32/2/8 40/1/8
f 145/19/9 48/20/9 41/21/9 146/22/9
f 146/22/10 41/21/10 42/23/10 147/24/10
f 147/24/11 42/23/11 43/25/11 148/26/11
f 148/26/12 43/25/12 44/27/12 149/28/12
f 149/28/13 44/27/13 45/29/13 150/30/13
f 150/30/14 45/29/14 46/31/14 151/32/14
f 151/33/15 46/34/15 47/35/15 152/36/15
f 152/36/16 47/35/16 48/20/16 145/19/16
f 72/37/17 64/38/17 57/39/17 65/40/17
f 65/40/18 57/39/18 58/41/18 66/42/18
f 66/42/19 58/41/19 59/43/19 67/44/19
f 67/44/20 59/43/20 60/45/20 68/46/20
f 68/46/21 60/45/21 61/47/21 69/48/21
f 69/48/22 61/47/22 62/49/22 70/50/22
f 70/51/23 62/52/23 63/53/23 71/54/23
f 71/54/24 63/53/24 64/38/24 72/37/24
f 55/55/25 152/36/25 145/19/25 56/56/25
f 54/57/26 151/33/26 152/36/26 55/55/26
f 53/58/27 150/30/27 151/32/27 54/59/27
f 51/60/28 148/26/28 149/28/28 52/61/28
f 50/62/29 147/24/29 148/26/29 51/60/29
f 49/63/30 146/22/30 147/24/30 50/62/30
f 56/56/31 145/19/31 146/22/31 49/63/31
f 16/64/32 2/65/32 156/66/32 168/67/32
f 172/68/32 184/69/32 185/70/32
f 177/71/33 179/72/33 186/73/33
f 184/69/32 182/74/32 185/70/32
f 182/74/32 180/75/32 185/70/32
f 180/75/32 178/76/32 185/70/32
f 178/76/32 176/77/32 185/70/32
f 176/77/32 174/78/32 185/70/32
f 174/78/32 171/79/32 185/70/32
f 171/79/32 172/68/32 185/70/32
f 175/80/33 177/71/33 186/73/33
f 173/81/33 175/80/33 186/73/33
f 170/82/33 173/81/33 186/73/33
f 169/83/33 170/82/33 186/73/33
f 183/84/33 169/83/33 186/73/33
f 181/85/33 183/84/33 186/73/33
f 179/72/33 181/85/33 186/73/33
usemtl Material.001_NONE
f 17/86/34 156/87/34 155/88/34 18/89/34
f 18/89/35 155/88/35 158/90/35 19/91/35
f 19/91/36 158/90/36 160/92/36 20/93/36
f 20/93/37 160/92/37 162/94/37 21/95/37
f 21/95/38 162/94/38 164/96/38 22/97/38
f 22/97/39 164/96/39 166/98/39 23/99/39
f 9/100/40 11/101/40 179/102/40 177/103/40
f 23/104/41 166/105/41 168/106/41 24/107/41
f 24/107/42 168/106/42 156/87/42 17/86/42
f 2/108/43 16/109/43 184/110/43 172/111/43
f 72/112/44 65/113/44 137/114/44 130/115/44
f 43/116/45 42/117/45 107/118/45 108/119/45
f 65/113/46 66/120/46 136/121/46 137/114/46
f 32/122/47 31/123/47 96/124/47 81/125/47
f 42/117/48 41/126/48 106/127/48 107/118/48
f 66/120/49 67/128/49 135/129/49 136/121/49
f 31/123/50 30/130/50 95/131/50 96/124/50
f 41/126/51 48/132/51 97/133/51 106/127/51
f 67/128/52 68/134/52 134/135/52 135/129/52
f 30/130/53 29/136/53 94/137/53 95/131/53
f 68/134/54 69/138/54 133/139/54 134/135/54
f 29/136/55 28/140/55 93/141/55 94/137/55
f 69/138/56 70/142/56 132/143/56 133/139/56
f 28/140/57 27/144/57 92/145/57 93/141/57
f 56/146/58 49/147/58 121/148/58 114/149/58
f 70/142/59 71/150/59 131/151/59 132/143/59
f 27/144/60 26/152/60 91/153/60 92/145/60
f 49/147/61 50/154/61 120/155/61 121/148/61
f 71/150/62 72/112/62 130/115/62 131/151/62
f 26/152/63 25/156/63 90/157/63 91/153/63
f 50/154/64 51/158/64 119/159/64 120/155/64
f 25/156/65 32/122/65 81/125/65 90/157/65
f 51/158/66 52/160/66 118/161/66 119/159/66
f 52/160/67 53/162/67 117/163/67 118/161/67
f 80/164/68 79/165/68 144/166/68 129/167/68
f 53/162/69 54/168/69 116/169/69 117/163/69
f 79/165/70 78/170/70 143/171/70 144/166/70
f 40/172/71 33/173/71 105/174/71 98/175/71
f 54/168/72 55/176/72 115/177/72 116/169/72
f 78/170/73 77/178/73 142/179/73 143/171/73
f 33/173/74 34/180/74 104/181/74 105/174/74
f 55/176/75 56/146/75 114/149/75 115/177/75
f 153/182/76 80/183/76 73/184/76 154/185/76
f 154/185/77 73/184/77 74/186/77 157/187/77
f 157/187/78 74/186/78 75/188/78 159/189/78
f 159/189/79 75/188/79 76/190/79 161/191/79
f 161/191/80 76/190/80 77/192/80 163/193/80
f 163/193/81 77/192/81 78/194/81 165/195/81
f 165/196/82 78/197/82 79/198/82 167/199/82
f 167/199/83 79/198/83 80/183/83 153/182/83
f 96/124/84 83/200/84 82/201/84 81/125/84
f 95/131/85 84/202/85 83/200/85 96/124/85
f 94/137/86 85/203/86 84/202/86 95/131/86
f 93/141/87 86/204/87 85/203/87 94/137/87
f 92/145/43 87/205/43 86/204/43 93/141/43
f 91/153/88 88/206/88 87/205/88 92/145/88
f 90/157/89 89/207/89 88/206/89 91/153/89
f 81/125/40 82/201/40 89/207/40 90/157/40
f 112/208/84 99/209/84 98/175/84 97/133/84
f 111/210/85 100/211/85 99/209/85 112/208/85
f 110/212/86 101/213/86 100/211/86 111/210/86
f 109/214/87 102/215/87 101/213/87 110/212/87
f 108/119/43 103/216/43 102/215/43 109/214/43
f 107/118/88 104/181/88 103/216/88 108/119/88
f 106/127/89 105/174/89 104/181/89 107/118/89
f 97/133/40 98/175/40 105/174/40 106/127/40
f 128/217/84 115/177/84 114/149/84 113/218/84
f 127/219/85 116/169/85 115/177/85 128/217/85
f 126/220/86 117/163/86 116/169/86 127/219/86
f 125/221/87 118/161/87 117/163/87 126/220/87
f 124/222/43 119/159/43 118/161/43 125/221/43
f 123/223/88 120/155/88 119/159/88 124/222/88
f 122/224/89 121/148/89 120/155/89 123/223/89
f 113/218/40 114/149/40 121/148/40 122/224/40
f 144/166/84 131/151/84 130/115/84 129/167/84
f 143/171/85 132/143/85 131/151/85 144/166/85
f 142/179/86 133/139/86 132/143/86 143/171/86
f 141/225/87 134/135/87 133/139/87 142/179/87
f 140/226/43 135/129/43 134/135/43 141/225/43
f 139/227/88 136/121/88 135/129/88 140/226/88
f 138/228/89 137/114/89 136/121/89 139/227/89
f 129/167/40 130/115/40 137/114/40 138/228/40
f 44/229/90 43/116/90 108/119/90 109/214/90
f 45/230/91 44/229/91 109/214/91 110/212/91
f 24/231/92 17/232/92 82/201/92 83/200/92
f 46/233/93 45/230/93 110/212/93 111/210/93
f 23/234/94 24/231/94 83/200/94 84/202/94
f 57/235/95 64/236/95 113/218/95 122/224/95
f 47/237/96 46/233/96 111/210/96 112/208/96
f 22/238/97 23/234/97 84/202/97 85/203/97
f 58/239/98 57/235/98 122/224/98 123/223/98
f 48/132/99 47/237/99 112/208/99 97/133/99
f 21/240/100 22/238/100 85/203/100 86/204/100
f 59/241/101 58/239/101 123/223/101 124/222/101
f 20/242/102 21/240/102 86/204/102 87/205/102
f 60/243/103 59/241/103 124/222/103 125/221/103
f 19/244/104 20/242/104 87/205/104 88/206/104
f 61/245/105 60/243/105 125/221/105 126/220/105
f 39/246/106 40/172/106 98/175/106 99/209/106
f 18/247/107 19/244/107 88/206/107 89/207/107
f 62/248/108 61/245/108 126/220/108 127/219/108
f 38/249/109 39/246/109 99/209/109 100/211/109
f 17/232/110 18/247/110 89/207/110 82/201/110
f 73/250/111 80/164/111 129/167/111 138/228/111
f 63/251/112 62/248/112 127/219/112 128/217/112
f 37/252/113 38/249/113 100/211/113 101/213/113
f 74/253/114 73/250/114 138/228/114 139/227/114
f 64/236/115 63/251/115 128/217/115 113/218/115
f 36/254/116 37/252/116 101/213/116 102/215/116
f 75/255/117 74/253/117 139/227/117 140/226/117
f 35/256/118 36/254/118 102/215/118 103/216/118
f 76/257/119 75/255/119 140/226/119 141/225/119
f 34/180/120 35/256/120 103/216/120 104/181/120
f 77/178/121 76/257/121 141/225/121 142/179/121
f 52/61/122 149/28/122 150/30/122 53/58/122
f 3/258/33 1/259/33 153/260/33 154/261/33
f 2/65/32 4/262/32 155/263/32 156/66/32
f 5/264/33 3/258/33 154/261/33 157/265/33
f 4/262/32 6/266/32 158/267/32 155/263/32
f 7/268/33 5/264/33 157/265/33 159/269/33
f 6/266/32 8/270/32 160/271/32 158/267/32
f 9/272/33 7/268/33 159/269/33 161/273/33
f 8/270/32 10/274/32 162/275/32 160/271/32
f 11/276/33 9/272/33 161/273/33 163/277/33
f 10/274/32 12/278/32 164/279/32 162/275/32
f 13/280/33 11/276/33 163/277/33 165/281/33
f 12/278/32 14/282/32 166/283/32 164/279/32
f 15/284/33 13/280/33 165/281/33 167/285/33
f 14/282/32 16/64/32 168/67/32 166/283/32
f 1/259/33 15/284/33 167/285/33 153/260/33
f 4/286/87 2/108/87 172/111/87 171/287/87
f 12/288/40 10/289/40 178/290/40 180/291/40
f 3/292/86 5/293/86 173/294/86 170/295/86
f 11/101/89 13/296/89 181/297/89 179/102/89
f 6/298/86 4/286/86 171/287/86 174/299/86
f 14/300/89 12/288/89 180/291/89 182/301/89
f 5/293/85 7/302/85 175/303/85 173/294/85
f 13/296/88 15/304/88 183/305/88 181/297/88
f 8/306/85 6/298/85 174/299/85 176/307/85
f 16/109/88 14/300/88 182/301/88 184/110/88
f 7/302/84 9/100/84 177/103/84 175/303/84
f 15/304/43 1/308/43 169/309/43 183/305/43
f 10/289/84 8/306/84 176/307/84 178/290/84
f 1/308/87 3/292/87 170/295/87 169/309/87
